<svg xmlns="http://www.w3.org/2000/svg" viewBox="0,0 10080,10080">
	<path d="M0,1260a1260,1260 0 0 1 1260,-1260h7560a1260,1260 0 0 1 1260,1260v7560a1260,1260 0 0 1 -1260,1260h-7560a1260,1260 0 0 1 -1260,-1260z" fill="#FF0000" stroke="none" />
	<path d="M2520,2520m-1008,0a1008,1008 0 1,0 2016,0a1008,1008 0 1,0 -2016,0M7560,2520m-1008,0a1008,1008 0 1,0 2016,0a1008,1008 0 1,0 -2016,0M2520,7560m-1008,0a1008,1008 0 1,0 2016,0a1008,1008 0 1,0 -2016,0M7560,7560m-1008,0a1008,1008 0 1,0 2016,0a1008,1008 0 1,0 -2016,0M5040,5040m-1008,0a1008,1008 0 1,0 2016,0a1008,1008 0 1,0 -2016,0" fill="#000000" stroke="#FFFFFF" stroke-width="252" />
</svg>